<svg xmlns="http://www.w3.org/2000/svg" xmlns:xlink="http://www.w3.org/1999/xlink" id="Circle" viewBox="0 0 1024 1025"><defs><linearGradient id="linear-gradient" x1="291.2" y1="496.52" x2="982.18" y2="496.52" gradientUnits="userSpaceOnUse"><stop offset="0" stop-color="#ed1c24"/><stop offset="1" stop-color="#ff758c"/></linearGradient><linearGradient id="linear-gradient-2" x1="257.41" y1="384.5" x2="982.15" y2="384.5" gradientUnits="userSpaceOnUse"><stop offset="0" stop-color="#4facfe"/><stop offset="1" stop-color="#00f2fe"/></linearGradient><linearGradient id="linear-gradient-3" x1="947.13" y1="343.05" x2="948.94" y2="343.05" gradientUnits="userSpaceOnUse"><stop offset="0" stop-color="#00d2ff"/><stop offset="1" stop-color="#3a7bd5"/></linearGradient><linearGradient id="linear-gradient-4" x1="946.02" y1="339.51" x2="947.13" y2="339.51" xlink:href="#linear-gradient-3"/><linearGradient id="linear-gradient-5" x1="944.85" y1="336.82" x2="946.02" y2="336.82" xlink:href="#linear-gradient-3"/><linearGradient id="linear-gradient-6" x1="424" y1="687.35" x2="917.55" y2="457.2" xlink:href="#linear-gradient"/><linearGradient id="linear-gradient-7" x1="544.49" y1="979.67" x2="544.49" y2="290.05" gradientUnits="userSpaceOnUse"><stop offset="0" stop-color="#fcee21"/><stop offset="1" stop-color="#fbb03b"/></linearGradient><linearGradient id="linear-gradient-8" x1="853.13" y1="199.36" x2="856.93" y2="199.36" xlink:href="#linear-gradient-3"/><linearGradient id="linear-gradient-9" x1="850.49" y1="196.01" x2="853.13" y2="196.01" xlink:href="#linear-gradient-3"/><linearGradient id="linear-gradient-10" x1="209.97" y1="860.62" x2="697.61" y2="372.98" xlink:href="#linear-gradient-7"/><linearGradient id="linear-gradient-11" x1="58.68" y1="540.31" x2="748.08" y2="540.31" gradientUnits="userSpaceOnUse"><stop offset="0" stop-color="#d9e021"/><stop offset="1" stop-color="#39b54a"/></linearGradient><linearGradient id="linear-gradient-12" x1="732.68" y1="603.89" x2="733.49" y2="603.89" xlink:href="#linear-gradient-3"/><linearGradient id="linear-gradient-13" x1="179.38" y1="206.31" x2="666.85" y2="693.79" xlink:href="#linear-gradient-11"/><linearGradient id="linear-gradient-14" x1="606.97" y1="306.02" x2="608.54" y2="306.02" xlink:href="#linear-gradient-3"/><linearGradient id="linear-gradient-15" x1="175.18" y1="401.5" x2="844.03" y2="401.5" xlink:href="#linear-gradient-2"/><linearGradient id="linear-gradient-16" x1="604.89" y1="305.28" x2="606.97" y2="305.28" xlink:href="#linear-gradient-3"/><linearGradient id="linear-gradient-17" x1="309.37" y1="427.38" x2="507.54" y2="427.38" xlink:href="#linear-gradient-3"/><linearGradient id="linear-gradient-18" x1="291.68" y1="424.8" x2="748.68" y2="424.8" xlink:href="#linear-gradient-3"/><linearGradient id="linear-gradient-19" x1="309.37" y1="424.8" x2="507.54" y2="424.8" xlink:href="#linear-gradient-3"/><linearGradient id="linear-gradient-20" x1="291.56" y1="424.8" x2="495.31" y2="424.8" xlink:href="#linear-gradient-3"/><linearGradient id="linear-gradient-21" x1="305.5" y1="438.51" x2="306.33" y2="438.51" xlink:href="#linear-gradient-3"/><linearGradient id="linear-gradient-22" x1="305.5" y1="597.83" x2="306.33" y2="597.83" xlink:href="#linear-gradient-3"/><linearGradient id="linear-gradient-23" x1="159.01" y1="829.8" x2="222.6" y2="829.8" xlink:href="#linear-gradient-3"/><linearGradient id="linear-gradient-24" x1="161.77" y1="829.8" x2="217.67" y2="829.8" xlink:href="#linear-gradient-3"/><linearGradient id="linear-gradient-25" x1="160.35" y1="829.8" x2="191.76" y2="829.8" xlink:href="#linear-gradient-3"/></defs><title>TroupLogo</title><path d="M814.76,221.55A345.46,345.46,0,0,0,291.2,514.71,228.46,228.46,0,0,1,374,341.41,345.57,345.57,0,0,1,938.22,516.73c25.78,103.94,2.63,217.53-69.45,304.15A460.14,460.14,0,0,0,982.15,522.14q0-2.23,0-4.47t0-4.47C980.58,389.4,913.9,281.29,814.76,221.55Z" style="fill:url(#linear-gradient)"/><path d="M847.22,191.84q-1.59-1.57-3.19-3.14C756,102.83,633.37,73.36,521.62,100.31a345.45,345.45,0,0,0-165.09,578A230.67,230.67,0,0,1,291.2,520.63c0-1,0-2,0-3s0-2,0-3A345.56,345.56,0,0,1,814.76,221.55C913.9,281.29,980.58,389.4,982.15,513.2a460.54,460.54,0,0,0-33.21-167.93c-.6-1.49-1.2-3-1.81-4.44L946,338.19q-.57-1.36-1.17-2.73-.91-2.12-1.84-4.22A460.78,460.78,0,0,0,850.36,195Q848.8,193.41,847.22,191.84Z" style="fill:url(#linear-gradient-2)"/><path d="M948.94,345.27c-.6-1.49-1.2-3-1.81-4.44" style="fill:url(#linear-gradient-3)"/><path d="M947.13,340.83,946,338.19" style="fill:url(#linear-gradient-4)"/><path d="M946,338.19q-.57-1.36-1.17-2.73" style="fill:url(#linear-gradient-5)"/><path d="M938.22,516.73A345.46,345.46,0,0,0,374,341.41a228.36,228.36,0,0,1,146.19-52.74A230.92,230.92,0,0,1,545.41,290,345.57,345.57,0,0,1,816.8,812.75c-54.14,89.85-148,153-257.27,165.26q6.43-.54,12.84-1.26a461.12,461.12,0,0,0,296.4-155.87C940.85,734.26,964,620.67,938.22,516.73Z" style="fill:url(#linear-gradient-6)"/><path d="M816.8,812.75A345.47,345.47,0,0,0,545.41,290q5.77.63,11.46,1.55a227.15,227.15,0,0,1,48,13.26c.7.27,1.39.55,2.08.84l1.57.64,1.53.65a227.35,227.35,0,0,1,44.38,25,230.92,230.92,0,0,1,44.83,42.64A345.56,345.56,0,0,1,521.62,936.21c-101.83,25.25-212.91,3.55-298.82-65.09q5,4.19,10,8.22a459.36,459.36,0,0,0,74.69,48.57c2.9,1.5,5.8,3,8.72,4.41.94.47,1.88.93,2.82,1.37,2,1,4,1.94,6,2.88,1.18.55,2.35,1.1,3.53,1.63l3.66,1.65L335,941l1.47.64c1.17.51,2.35,1,3.53,1.51,1.33.58,2.67,1.14,4,1.68l2.58,1.06c.5.21,1,.41,1.49.6,1.15.47,2.29.92,3.44,1.37s2.49,1,3.73,1.44q2.31.9,4.64,1.75l3.19,1.16,2.35.85q4.77,1.71,9.59,3.29c1.56.52,3.12,1,4.68,1.52s3.34,1.06,5,1.57,3.36,1,5,1.51,3.32,1,5,1.44l.19.05,5,1.37A461.09,461.09,0,0,0,468,976.75a466,466,0,0,0,52.19,2.92q19.78,0,39.15-1.64l.2,0C668.8,965.78,762.66,902.6,816.8,812.75Z" style="fill:url(#linear-gradient-7)"/><path d="M856.93,201.36c-1.26-1.34-2.52-2.67-3.8-4" style="fill:url(#linear-gradient-8)"/><path d="M850.49,194.66c.89.9,1.77,1.8,2.64,2.71" style="fill:url(#linear-gradient-9)"/><path d="M193.85,844.5q13.95,13.95,28.75,26.45l.2.17c85.91,68.64,197,90.34,298.82,65.09A345.45,345.45,0,0,0,699.28,374.66c2.45,3,4.79,6.12,7,9.24a226.84,226.84,0,0,1,25,44.38q.67,1.57,1.32,3.15c.28.68.55,1.35.81,2a226.56,226.56,0,0,1,13.26,48,231.38,231.38,0,0,1,1.33,63.87A345.57,345.57,0,0,1,223.69,812.63C134,757.81,71.32,663.27,60,553.49q.63,8.49,1.58,16.87a461.09,461.09,0,0,0,12.9,68.12q.68,2.49,1.37,5a1.33,1.33,0,0,0,.05.19q.7,2.5,1.44,5,1.48,5,3.08,10c.5,1.56,1,3.12,1.52,4.68q1.59,4.81,3.29,9.59c.28.79.56,1.57.85,2.35.38,1.07.77,2.13,1.16,3.19q.86,2.33,1.75,4.64c.47,1.24,1,2.49,1.44,3.73s.9,2.29,1.37,3.44c.19.5.39,1,.6,1.49.35.86.7,1.72,1.06,2.58.54,1.34,1.1,2.68,1.68,4,.49,1.18,1,2.36,1.51,3.53l.6,1.39c.52,1.19,1,2.38,1.59,3.56s1,2.18,1.47,3.26,1,2.09,1.45,3.14c.94,2,1.89,4,2.88,6,.44.94.9,1.88,1.37,2.82.71,1.46,1.44,2.91,2.18,4.37s1.48,2.9,2.23,4.35q3.39,6.51,7,12.94,1.2,2.14,2.43,4.27A460.47,460.47,0,0,0,159,805.53,466,466,0,0,0,193.85,844.5Z" style="fill:url(#linear-gradient-10)"/><path d="M733.49,602.88l-.81,2q-.65,1.57-1.32,3.15a226.84,226.84,0,0,1-25,44.38,231.41,231.41,0,0,1-44.25,46.12A345.56,345.56,0,0,1,102.32,516.73c-24.66-102.27-2.07-213.61,67.76-299.27q-5.68,6.6-11.07,13.35a460.48,460.48,0,0,0-39.15,57.48q-1.23,2.13-2.43,4.27-3.6,6.44-7,12.94c-.75,1.45-1.5,2.9-2.23,4.35s-1.47,2.91-2.18,4.37c-.47.94-.93,1.88-1.37,2.82-1,2-1.94,4-2.88,6-.49,1-1,2.09-1.45,3.14-.37.78-.72,1.57-1.07,2.37-.15.3-.28.59-.4.89-.54,1.18-1.07,2.37-1.59,3.56l-.6,1.39c-.51,1.17-1,2.35-1.51,3.53-.58,1.33-1.14,2.67-1.68,4-.36.86-.71,1.72-1.06,2.58-.21.5-.41,1-.6,1.49-.47,1.15-.92,2.29-1.37,3.44s-1,2.49-1.44,3.73q-.9,2.31-1.75,4.64c-.39,1.06-.78,2.12-1.16,3.19-.29.78-.57,1.56-.85,2.35Q83.54,368.16,82,373c-.52,1.56-1,3.12-1.52,4.68q-1.59,5-3.08,10-.74,2.49-1.44,5a1.33,1.33,0,0,0-.05.19q-.69,2.48-1.37,5A461.09,461.09,0,0,0,61.6,466a466,466,0,0,0-2.92,52.19q0,17.76,1.32,35.17a.77.77,0,0,0,0,.15c11.3,109.78,74,204.32,163.67,259.14A345.49,345.49,0,0,0,748.08,545.35c-.37,3.19-.82,6.36-1.33,9.51A226.56,226.56,0,0,1,733.49,602.88Z" style="fill:url(#linear-gradient-11)"/><path d="M733.49,602.88l-.81,2" style="fill:url(#linear-gradient-12)"/><path d="M102.32,516.73A345.47,345.47,0,0,0,662.08,698.56q-3.77,3-7.63,5.76a228.73,228.73,0,0,1-155.84,42.15A345.57,345.57,0,0,1,225.72,221.68c55.6-90.93,152.06-154.15,263.85-164.12A460.11,460.11,0,0,0,232.82,157a466,466,0,0,0-39,34.84q-12.46,12.46-23.77,25.62C100.25,303.12,77.66,414.46,102.32,516.73Z" style="fill:url(#linear-gradient-13)"/><path d="M608.54,306.34,607,305.7" style="fill:url(#linear-gradient-14)"/><path d="M225.72,221.68A345.48,345.48,0,0,0,498.61,746.47a227.93,227.93,0,0,1-137.9-63.94c-.71-.69-1.4-1.38-2.1-2.08s-1.4-1.39-2.08-2.11a345.55,345.55,0,0,1,165.09-578C633.37,73.36,756,102.83,844,188.7,746.3,92.79,616.52,49.08,489.57,57.56,377.78,67.53,281.32,130.75,225.72,221.68Z" style="fill:url(#linear-gradient-15)"/><path d="M607,305.7c-.69-.29-1.38-.57-2.08-.84" style="fill:url(#linear-gradient-16)"/><path d="M311.44,425c-.71,1.58-1.4,3.17-2.07,4.77Q310.38,427.37,311.44,425Z" style="fill:url(#linear-gradient-17)"/><path d="M311.62,424.59l-.18.4Z" style="fill:url(#linear-gradient-18)"/><path d="M311.62,424.59l-.18.4Z" style="fill:url(#linear-gradient-19)"/><path d="M311.62,424.59l-.18.4Z" style="fill:url(#linear-gradient-20)"/><path d="M305.5,439.62l.83-2.22" style="fill:url(#linear-gradient-21)"/><path d="M306.33,598.94l-.83-2.22" style="fill:url(#linear-gradient-22)"/><path d="M179.69,829.89l-.17-.18Z" style="fill:url(#linear-gradient-23)"/><path d="M179.69,829.89l-.17-.18Z" style="fill:url(#linear-gradient-24)"/><path d="M179.69,829.89l-.17-.18Z" style="fill:url(#linear-gradient-25)"/></svg>
