<svg width="675" height="255" viewBox="0 0 675 255" fill="none" xmlns="http://www.w3.org/2000/svg">
<g clip-path="url(#clip0)">
<path d="M191.625 13H82.375C49.5831 13 23 39.5831 23 72.375V181.625C23 214.417 49.5831 241 82.375 241H191.625C224.417 241 251 214.417 251 181.625V72.375C251 39.5831 224.417 13 191.625 13Z" fill="#DC4376"/>
<path d="M191.625 13H82.375C49.5831 13 23 39.5831 23 72.375V181.625C23 214.417 49.5831 241 82.375 241H191.625C224.417 241 251 214.417 251 181.625V72.375C251 39.5831 224.417 13 191.625 13Z" fill="url(#paint0_linear)"/>
<path d="M131.748 104.55C134.774 102.812 139.72 102.821 142.736 104.55L184.168 128.506C187.184 130.251 189.652 134.522 189.646 138.004V147.093C189.646 150.576 187.165 151.997 184.145 150.259L142.749 126.325C139.732 124.581 134.787 124.571 131.761 126.309L90.2505 150.152C87.2243 151.887 84.75 150.468 84.75 146.986V137.868C84.75 134.385 87.2243 130.118 90.2505 128.37L131.748 104.55Z" fill="white"/>
<path d="M330.716 178C322.916 178 316.666 176.1 311.966 172.3C307.266 168.5 304.916 161.75 304.916 152.05V119.65H292.166V103.6H304.916L307.166 83.65H324.116V103.6H344.216V119.65H324.116V152.2C324.116 155.8 324.866 158.3 326.366 159.7C327.966 161 330.666 161.65 334.466 161.65H343.766V178H330.716ZM353.201 178V103.6H370.301L372.101 117.55C374.801 112.75 378.451 108.95 383.051 106.15C387.751 103.25 393.251 101.8 399.551 101.8V122.05H394.151C389.951 122.05 386.201 122.7 382.901 124C379.601 125.3 377.001 127.55 375.101 130.75C373.301 133.95 372.401 138.4 372.401 144.1V178H353.201ZM439.555 179.8C432.355 179.8 425.855 178.15 420.055 174.85C414.355 171.55 409.805 167 406.405 161.2C403.105 155.3 401.455 148.5 401.455 140.8C401.455 133.1 403.155 126.35 406.555 120.55C409.955 114.65 414.505 110.05 420.205 106.75C426.005 103.45 432.505 101.8 439.705 101.8C446.805 101.8 453.205 103.45 458.905 106.75C464.705 110.05 469.255 114.65 472.555 120.55C475.955 126.35 477.655 133.1 477.655 140.8C477.655 148.5 475.955 155.3 472.555 161.2C469.255 167 464.705 171.55 458.905 174.85C453.105 178.15 446.655 179.8 439.555 179.8ZM439.555 163.15C444.555 163.15 448.905 161.3 452.605 157.6C456.305 153.8 458.155 148.2 458.155 140.8C458.155 133.4 456.305 127.85 452.605 124.15C448.905 120.35 444.605 118.45 439.705 118.45C434.605 118.45 430.205 120.35 426.505 124.15C422.905 127.85 421.105 133.4 421.105 140.8C421.105 148.2 422.905 153.8 426.505 157.6C430.205 161.3 434.555 163.15 439.555 163.15ZM559.022 103.6V178H542.072L540.572 165.4C538.272 169.8 534.922 173.3 530.522 175.9C526.222 178.5 521.122 179.8 515.222 179.8C506.022 179.8 498.872 176.9 493.772 171.1C488.672 165.3 486.122 156.8 486.122 145.6V103.6H505.322V143.8C505.322 150.2 506.622 155.1 509.222 158.5C511.822 161.9 515.872 163.6 521.372 163.6C526.772 163.6 531.172 161.7 534.572 157.9C538.072 154.1 539.822 148.8 539.822 142V103.6H559.022ZM571.082 211V103.6H588.182L590.282 114.25C592.682 110.95 595.832 108.05 599.732 105.55C603.732 103.05 608.882 101.8 615.182 101.8C622.182 101.8 628.432 103.5 633.932 106.9C639.432 110.3 643.782 114.95 646.982 120.85C650.182 126.75 651.782 133.45 651.782 140.95C651.782 148.45 650.182 155.15 646.982 161.05C643.782 166.85 639.432 171.45 633.932 174.85C628.432 178.15 622.182 179.8 615.182 179.8C609.582 179.8 604.682 178.75 600.482 176.65C596.282 174.55 592.882 171.6 590.282 167.8V211H571.082ZM611.132 163C617.232 163 622.282 160.95 626.282 156.85C630.282 152.75 632.282 147.45 632.282 140.95C632.282 134.45 630.282 129.1 626.282 124.9C622.282 120.7 617.232 118.6 611.132 118.6C604.932 118.6 599.832 120.7 595.832 124.9C591.932 129 589.982 134.3 589.982 140.8C589.982 147.3 591.932 152.65 595.832 156.85C599.832 160.95 604.932 163 611.132 163Z" fill="#323339"/>
</g>
<defs>
<linearGradient id="paint0_linear" x1="137" y1="13" x2="137" y2="241" gradientUnits="userSpaceOnUse">
<stop stop-color="#38F9D7"/>
<stop offset="1" stop-color="#4FACFE"/>
</linearGradient>
<clipPath id="clip0">
<rect width="675" height="255" fill="white"/>
</clipPath>
</defs>
</svg>
